HIERARCHY
ROOT Root
{
	OFFSET 0.00000 0.00000 0.00000
	CHANNELS 6 Xposition Yposition Zposition Zrotation Xrotation Yrotation
	JOINT Hips
	{
		OFFSET 0 0 0	
		CHANNELS 3 Zrotation Xrotation Yrotation
		JOINT Spine
		{
			OFFSET 0 4 0	
			CHANNELS 3 Zrotation Xrotation Yrotation
			JOINT Spine1
			{
				OFFSET 0 19.4 0	
				CHANNELS 3 Zrotation Xrotation Yrotation
				JOINT Spine2
				{
					OFFSET 0 16.6 0	
					CHANNELS 3 Zrotation Xrotation Yrotation
					JOINT LeftCollar
					{
						OFFSET 0 10 0	
						CHANNELS 3 Zrotation Xrotation Yrotation
						JOINT LeftArm
						{
							OFFSET 15.6 -2 3	
							CHANNELS 3 Zrotation Xrotation Yrotation
							JOINT LeftForeArm
							{
								OFFSET 3.5 -27 -1	
								CHANNELS 3 Zrotation Xrotation Yrotation
								JOINT LeftHand
								{
									OFFSET 1 -27 1	
									CHANNELS 3 Zrotation Xrotation Yrotation
									End Site
									{
										OFFSET 0 -15 0
									}
								}
							}
						}
					}
					JOINT RightCollar
					{
						OFFSET 0 10 0	
						CHANNELS 3 Zrotation Xrotation Yrotation
						JOINT RightArm
						{
							OFFSET -15.6 -2 3	
							CHANNELS 3 Zrotation Xrotation Yrotation
							JOINT RightForeArm
							{
								OFFSET -3.5 -27 -1	
								CHANNELS 3 Zrotation Xrotation Yrotation
								JOINT RightHand
								{
									OFFSET -1 -27 1	
									CHANNELS 3 Zrotation Xrotation Yrotation
									End Site
									{
										OFFSET 0 -15 0
									}
								}
							}
						}
					}
					JOINT Neck
					{
						OFFSET 0 10 0	
						CHANNELS 3 Zrotation Xrotation Yrotation
						JOINT Head
						{
							OFFSET 0 12.7 3	
							CHANNELS 3 Zrotation Xrotation Yrotation
							End Site
							{
								OFFSET 0 12.7 3
							}
						}
					}
				}
			}
		}
	}
	JOINT LeftHip
	{
		OFFSET 0 0 0	
		CHANNELS 3 Zrotation Xrotation Yrotation
		JOINT LeftUpLeg
		{
			OFFSET 8.8 -6 0	
			CHANNELS 3 Zrotation Xrotation Yrotation
			JOINT LeftLeg
			{
				OFFSET 0 -39 2	
				CHANNELS 3 Zrotation Xrotation Yrotation
				JOINT LeftFoot
				{
					OFFSET 0 -43 -2	
					CHANNELS 3 Zrotation Xrotation Yrotation
					JOINT LeftFootFront
					{
						OFFSET 0 -7 8.5	
						CHANNELS 3 Zrotation Xrotation Yrotation
						End Site
						{
							OFFSET 0 -0.5 9
						}
					}
				}
				JOINT LeftHeel
				{
					OFFSET 0 -43 -2	
					CHANNELS 3 Zrotation Xrotation Yrotation
					End Site
					{
						OFFSET 0 -7.5 -5
					}
				}
			}
		}
	}
	JOINT RightHip
	{
		OFFSET 0 0 0	
		CHANNELS 3 Zrotation Xrotation Yrotation
		JOINT RightUpLeg
		{
			OFFSET -8.8 -6 0	
			CHANNELS 3 Zrotation Xrotation Yrotation
			JOINT RightLeg
			{
				OFFSET 0 -39 2	
				CHANNELS 3 Zrotation Xrotation Yrotation
				JOINT RightFoot
				{
					OFFSET 0 -43 -2	
					CHANNELS 3 Zrotation Xrotation Yrotation
					JOINT RightFootFront
					{
						OFFSET 0 -7 8.5	
						CHANNELS 3 Zrotation Xrotation Yrotation
						End Site
						{
							OFFSET 0 -0.5 9
						}
					}
				}
				JOINT RightHeel
				{
					OFFSET 0 -43 -2	
					CHANNELS 3 Zrotation Xrotation Yrotation
					End Site
					{
						OFFSET 0 -7.5 -5
					}
				}
			}
		}
	}
}
MOTION
Frames: 24
Frame Time: 0.002
0 95.801 0 -0 0 -0 1.5189 -2.3798 0.5127 -0.54936 0.65098 -0.80273 -0.54936 0.65098 -0.80273 -0.46207 0.5463 -0.67471 -0 0 -0 -0.057349 -1.072 1.7955 -1.3 -0.14151 1.8859 -0 0 -0 -0 0 -0 1.2836 -0.031095 0.10966 -0.14055 0.29117 0.73388 -0 0 -0 0.31826 -0.43515 -0.01689 0.31826 -0.43515 -0.01689 1.5189 -2.3798 0.5127 -0.2749 -0.943 -2.3519 -1.0542 3.175 2.5555 -0 0 -0 -0 0 -0 -0 0 -0 1.5189 -2.3798 0.5127 -0.98657 -0.19047 -1.3217 0.062387 0.62221 2.3764 -0 0 -0 -0 0 -0 -0 0 -0 
0 95.801 0 -0 0 -0 1.519 -2.3801 0.51227 -0.54941 0.65099 -0.80249 -0.54941 0.65099 -0.80249 -0.46212 0.54631 -0.67451 -0 0 -0 -0.057471 -1.0717 1.7949 -1.2995 -0.14122 1.8874 -0 0 -0 -0 0 -0 1.2836 -0.030579 0.10874 -0.1404 0.2912 0.73267 -0 0 -0 0.31818 -0.43547 -0.017166 0.31818 -0.43547 -0.017165 1.519 -2.3801 0.51227 -0.27498 -0.94285 -2.3513 -1.0543 3.1754 2.5559 -0 0 -0 -0 0 -0 -0 0 -0 1.519 -2.3801 0.51227 -0.98659 -0.19066 -1.3215 0.062091 0.62286 2.3762 -0 0 -0 -0 0 -0 -0 0 -0 
0 95.801 0 -0 0 -0 1.5191 -2.3803 0.51183 -0.54947 0.65099 -0.80223 -0.54947 0.65099 -0.80224 -0.46216 0.54632 -0.67429 -0 0 -0 -0.057625 -1.0713 1.7942 -1.299 -0.14093 1.889 -0 0 -0 -0 0 -0 1.2836 -0.030006 0.10775 -0.14025 0.29122 0.73142 -0 0 -0 0.3181 -0.4358 -0.017457 0.3181 -0.4358 -0.017457 1.5191 -2.3803 0.51183 -0.27506 -0.94275 -2.3507 -1.0543 3.1757 2.5563 -0 0 -0 -0 0 -0 -0 0 -0 1.5191 -2.3803 0.51183 -0.98661 -0.19089 -1.3214 0.061765 0.6236 2.376 -0 0 -0 -0 0 -0 -0 0 -0 
0 95.801 0 -0 0 -0 1.5191 -2.3806 0.51134 -0.54954 0.65099 -0.80197 -0.54954 0.65099 -0.80197 -0.46222 0.54632 -0.67407 -0 0 -0 -0.057735 -1.0709 1.7935 -1.2985 -0.14058 1.8906 -0 0 -0 -0 0 -0 1.2836 -0.029379 0.10671 -0.14007 0.29124 0.73008 -0 0 -0 0.31802 -0.43615 -0.017768 0.31802 -0.43615 -0.017768 1.5191 -2.3806 0.51134 -0.27516 -0.9426 -2.35 -1.0544 3.1761 2.5567 -0 0 -0 -0 0 -0 -0 0 -0 1.5191 -2.3806 0.51134 -0.98663 -0.19109 -1.3212 0.061429 0.62434 2.3758 -0 0 -0 -0 0 -0 -0 0 -0 
0 95.801 0 -0 0 -0 1.5192 -2.3808 0.51084 -0.54959 0.651 -0.80169 -0.54959 0.651 -0.80169 -0.46227 0.54633 -0.67384 -0 0 -0 -0.057903 -1.0706 1.7928 -1.2978 -0.14024 1.8923 -0 0 -0 -0 0 -0 1.2836 -0.028742 0.10563 -0.13988 0.29126 0.72869 -0 0 -0 0.31792 -0.43652 -0.01808 0.31792 -0.43652 -0.01808 1.5192 -2.3808 0.51084 -0.27525 -0.94243 -2.3493 -1.0545 3.1765 2.5572 -0 0 -0 -0 0 -0 -0 0 -0 1.5192 -2.3808 0.51084 -0.98665 -0.19134 -1.321 0.061078 0.62513 2.3755 -0 0 -0 -0 0 -0 -0 0 -0 
0 95.801 0 -0 0 -0 1.5193 -2.3811 0.51031 -0.54967 0.65101 -0.8014 -0.54967 0.65101 -0.8014 -0.46233 0.54634 -0.67359 -0 0 -0 -0.058045 -1.0701 1.792 -1.2972 -0.13985 1.8941 -0 0 -0 -0 0 -0 1.2837 -0.028086 0.10449 -0.13969 0.29129 0.72721 -0 0 -0 0.31784 -0.43692 -0.018416 0.31784 -0.43692 -0.018416 1.5193 -2.3811 0.51031 -0.27535 -0.94228 -2.3485 -1.0545 3.177 2.5577 -0 0 -0 -0 0 -0 -0 0 -0 1.5193 -2.3811 0.51031 -0.98667 -0.19158 -1.3208 0.06069 0.62596 2.3753 -0 0 -0 -0 0 -0 -0 0 -0 
0 95.801 0 -0 0 -0 1.5194 -2.3814 0.50976 -0.54973 0.65101 -0.80109 -0.54973 0.65101 -0.80109 -0.46239 0.54633 -0.67333 -0 0 -0 -0.058235 -1.0697 1.7912 -1.2965 -0.13946 1.8959 -0 0 -0 -0 0 -0 1.2837 -0.027369 0.10329 -0.13951 0.29132 0.72561 -0 0 -0 0.31773 -0.43732 -0.018771 0.31773 -0.43732 -0.018771 1.5194 -2.3814 0.50976 -0.27546 -0.94209 -2.3478 -1.0546 3.1774 2.5582 -0 0 -0 -0 0 -0 -0 0 -0 1.5194 -2.3814 0.50976 -0.98668 -0.19186 -1.3206 0.060294 0.62685 2.375 -0 0 -0 -0 0 -0 -0 0 -0 
0 95.801 0 -0 0 -0 1.5195 -2.3818 0.50918 -0.54981 0.65104 -0.80077 -0.54981 0.65104 -0.80077 -0.46245 0.54635 -0.67306 -0 0 -0 -0.058417 -1.0693 1.7903 -1.2957 -0.13905 1.8978 -0 0 -0 -0 0 -0 1.2837 -0.026639 0.10202 -0.13929 0.29135 0.72398 -0 0 -0 0.31762 -0.43777 -0.01914 0.31762 -0.43777 -0.01914 1.5195 -2.3818 0.50918 -0.27559 -0.94187 -2.347 -1.0547 3.1778 2.5588 -0 0 -0 -0 0 -0 -0 0 -0 1.5195 -2.3818 0.50918 -0.98668 -0.1921 -1.3204 0.059867 0.62779 2.3748 -0 0 -0 -0 0 -0 -0 0 -0 
0 95.801 0 -0 0 -0 1.5195 -2.3821 0.50856 -0.54989 0.65105 -0.80044 -0.54989 0.65105 -0.80044 -0.46252 0.54636 -0.67279 -0 0 -0 -0.058595 -1.0688 1.7894 -1.2949 -0.13858 1.8997 -0 0 -0 -0 0 -0 1.2837 -0.025865 0.10072 -0.13907 0.29138 0.72225 -0 0 -0 0.31752 -0.43824 -0.01952 0.31752 -0.43824 -0.01952 1.5195 -2.3821 0.50856 -0.27569 -0.94168 -2.3462 -1.0548 3.1783 2.5594 -0 0 -0 -0 0 -0 -0 0 -0 1.5195 -2.3821 0.50856 -0.98669 -0.19241 -1.3202 0.059413 0.6288 2.3745 -0 0 -0 -0 0 -0 -0 0 -0 
0 95.801 0 -0 0 -0 1.5196 -2.3825 0.50792 -0.54997 0.65105 -0.80009 -0.54997 0.65105 -0.80009 -0.46258 0.54637 -0.67249 -0 0 -0 -0.058806 -1.0683 1.7884 -1.294 -0.13811 1.9017 -0 0 -0 -0 0 -0 1.2837 -0.025036 0.099337 -0.13884 0.2914 0.72044 -0 0 -0 0.3174 -0.43871 -0.019926 0.3174 -0.43871 -0.019926 1.5196 -2.3825 0.50792 -0.27583 -0.94144 -2.3453 -1.0548 3.1788 2.5601 -0 0 -0 -0 0 -0 -0 0 -0 1.5196 -2.3825 0.50792 -0.9867 -0.19268 -1.32 0.058956 0.62978 2.3742 -0 0 -0 -0 0 -0 -0 0 -0 
0 95.801 0 -0 0 -0 1.5197 -2.3829 0.50727 -0.55006 0.65106 -0.79974 -0.55006 0.65106 -0.79974 -0.46266 0.54637 -0.6722 -0 0 -0 -0.05901 -1.0677 1.7874 -1.2931 -0.13761 1.9037 -0 0 -0 -0 0 -0 1.2838 -0.024174 0.097936 -0.13859 0.29146 0.71851 -0 0 -0 0.31728 -0.43922 -0.020331 0.31728 -0.43922 -0.020331 1.5197 -2.3829 0.50727 -0.27597 -0.94121 -2.3445 -1.0549 3.1794 2.5608 -0 0 -0 -0 0 -0 -0 0 -0 1.5197 -2.3829 0.50727 -0.98669 -0.193 -1.3199 0.058461 0.63086 2.374 -0 0 -0 -0 0 -0 -0 0 -0 
0 95.801 0 -0 0 -0 1.5198 -2.3833 0.50658 -0.55015 0.65109 -0.79938 -0.55015 0.65108 -0.79938 -0.46273 0.5464 -0.67189 -0 0 -0 -0.059215 -1.0672 1.7863 -1.2921 -0.13709 1.9058 -0 0 -0 -0 0 -0 1.2838 -0.023312 0.09647 -0.13834 0.2915 0.71653 -0 0 -0 0.31716 -0.43977 -0.020753 0.31716 -0.43977 -0.020753 1.5198 -2.3833 0.50658 -0.27611 -0.94092 -2.3436 -1.055 3.1799 2.5616 -0 0 -0 -0 0 -0 -0 0 -0 1.5198 -2.3833 0.50658 -0.98669 -0.19331 -1.3197 0.05796 0.63198 2.3737 -0 0 -0 -0 0 -0 -0 0 -0 
0 95.801 0 -0 0 -0 1.5199 -2.3837 0.50588 -0.55024 0.65108 -0.79901 -0.55024 0.65108 -0.79901 -0.46281 0.54639 -0.67158 -0 0 -0 -0.059477 -1.0666 1.7851 -1.2911 -0.13655 1.9079 -0 0 -0 -0 0 -0 1.2838 -0.022322 0.094943 -0.13808 0.29153 0.71447 -0 0 -0 0.31703 -0.44031 -0.021189 0.31703 -0.44031 -0.02119 1.5199 -2.3837 0.50588 -0.27627 -0.94063 -2.3428 -1.0551 3.1804 2.5625 -0 0 -0 -0 0 -0 -0 0 -0 1.5199 -2.3837 0.50588 -0.98666 -0.19364 -1.3195 0.057418 0.63314 2.3734 -0 0 -0 -0 0 -0 -0 0 -0 
0 95.801 0 -0 0 -0 1.52 -2.3841 0.50515 -0.55033 0.65111 -0.79863 -0.55033 0.65111 -0.79863 -0.46288 0.54642 -0.67126 -0 0 -0 -0.059742 -1.0661 1.7839 -1.2899 -0.13598 1.91 -0 0 -0 -0 0 -0 1.2839 -0.021403 0.093372 -0.1378 0.2916 0.71232 -0 0 -0 0.31689 -0.44089 -0.021639 0.31689 -0.44089 -0.021639 1.52 -2.3841 0.50515 -0.27641 -0.94029 -2.3419 -1.0551 3.1809 2.5634 -0 0 -0 -0 0 -0 -0 0 -0 1.52 -2.3841 0.50515 -0.98664 -0.19394 -1.3194 0.056865 0.63431 2.3732 -0 0 -0 -0 0 -0 -0 0 -0 
0 95.801 0 -0 0 -0 1.5201 -2.3846 0.50439 -0.55042 0.65113 -0.79825 -0.55042 0.65113 -0.79825 -0.46296 0.54643 -0.67094 -0 0 -0 -0.060002 -1.0655 1.7826 -1.2888 -0.13538 1.9121 -0 0 -0 -0 0 -0 1.2839 -0.020422 0.091781 -0.13752 0.29163 0.7101 -0 0 -0 0.31674 -0.44152 -0.022082 0.31674 -0.44152 -0.022082 1.5201 -2.3846 0.50439 -0.27659 -0.93994 -2.3411 -1.0552 3.1815 2.5643 -0 0 -0 -0 0 -0 -0 0 -0 1.5201 -2.3846 0.50439 -0.98661 -0.19431 -1.3192 0.056295 0.63558 2.3729 -0 0 -0 -0 0 -0 -0 0 -0 
0 95.801 0 -0 0 -0 1.5202 -2.3851 0.50362 -0.55052 0.65115 -0.79786 -0.55052 0.65115 -0.79786 -0.46305 0.54645 -0.67062 -0 0 -0 -0.060255 -1.0649 1.7813 -1.2876 -0.13475 1.9142 -0 0 -0 -0 0 -0 1.284 -0.019386 0.090145 -0.13723 0.2917 0.70779 -0 0 -0 0.3166 -0.44214 -0.022541 0.3166 -0.44214 -0.022541 1.5202 -2.3851 0.50362 -0.27675 -0.93959 -2.3402 -1.0553 3.1821 2.5654 -0 0 -0 -0 0 -0 -0 0 -0 1.5202 -2.3851 0.50362 -0.98657 -0.19463 -1.3191 0.055698 0.63686 2.3726 -0 0 -0 -0 0 -0 -0 0 -0 
0 95.801 0 -0 0 -0 1.5203 -2.3855 0.50282 -0.55062 0.65117 -0.79745 -0.55062 0.65117 -0.79745 -0.46313 0.54647 -0.67028 -0 0 -0 -0.06054 -1.0643 1.7799 -1.2863 -0.1341 1.9163 -0 0 -0 -0 0 -0 1.284 -0.018343 0.088455 -0.13694 0.29173 0.70542 -0 0 -0 0.31644 -0.4428 -0.023015 0.31644 -0.4428 -0.023015 1.5203 -2.3855 0.50282 -0.27693 -0.9392 -2.3394 -1.0554 3.1826 2.5665 -0 0 -0 -0 0 -0 -0 0 -0 1.5203 -2.3855 0.50282 -0.98653 -0.195 -1.319 0.05511 0.63817 2.3724 -0 0 -0 -0 0 -0 -0 0 -0 
0 95.801 0 -0 0 -0 1.5204 -2.3861 0.50203 -0.55072 0.6512 -0.79706 -0.55072 0.6512 -0.79706 -0.46321 0.54649 -0.66995 -0 0 -0 -0.060859 -1.0637 1.7785 -1.285 -0.13344 1.9184 -0 0 -0 -0 0 -0 1.284 -0.017256 0.086754 -0.13666 0.29177 0.70299 -0 0 -0 0.31629 -0.44347 -0.023483 0.31629 -0.44347 -0.023483 1.5204 -2.3861 0.50203 -0.27713 -0.93874 -2.3386 -1.0554 3.1832 2.5677 -0 0 -0 -0 0 -0 -0 0 -0 1.5204 -2.3861 0.50203 -0.98647 -0.19531 -1.319 0.054492 0.63952 2.3722 -0 0 -0 -0 0 -0 -0 0 -0 
0 95.801 0 -0 0 -0 1.5204 -2.3866 0.50119 -0.55083 0.65122 -0.79666 -0.55083 0.65122 -0.79666 -0.4633 0.54651 -0.66961 -0 0 -0 -0.061143 -1.063 1.777 -1.2836 -0.13277 1.9205 -0 0 -0 -0 0 -0 1.2841 -0.016132 0.085011 -0.13634 0.29182 0.70051 -0 0 -0 0.31613 -0.44417 -0.023955 0.31613 -0.44417 -0.023955 1.5204 -2.3866 0.50119 -0.27732 -0.9383 -2.3378 -1.0555 3.1838 2.569 -0 0 -0 -0 0 -0 -0 0 -0 1.5204 -2.3866 0.50119 -0.98641 -0.19567 -1.319 0.053869 0.64088 2.372 -0 0 -0 -0 0 -0 -0 0 -0 
0 95.801 0 -0 0 -0 1.5205 -2.3871 0.50036 -0.55093 0.65125 -0.79627 -0.55093 0.65125 -0.79627 -0.46338 0.54654 -0.66928 -0 0 -0 -0.061469 -1.0624 1.7754 -1.2821 -0.13207 1.9225 -0 0 -0 -0 0 -0 1.2842 -0.015029 0.083266 -0.13604 0.29189 0.69795 -0 0 -0 0.31596 -0.44489 -0.024424 0.31596 -0.44489 -0.024425 1.5205 -2.3871 0.50036 -0.27753 -0.93778 -2.337 -1.0556 3.1843 2.5703 -0 0 -0 -0 0 -0 -0 0 -0 1.5205 -2.3871 0.50036 -0.98633 -0.196 -1.319 0.053235 0.64227 2.3718 -0 0 -0 -0 0 -0 -0 0 -0 
0 95.801 0 -0 0 -0 1.5206 -2.3877 0.49953 -0.55102 0.6513 -0.79588 -0.55102 0.6513 -0.79588 -0.46347 0.54658 -0.66896 -0 0 -0 -0.061806 -1.0618 1.7738 -1.2807 -0.13137 1.9244 -0 0 -0 -0 0 -0 1.2842 -0.01388 0.081506 -0.13572 0.29193 0.69538 -0 0 -0 0.31578 -0.44564 -0.024892 0.31578 -0.44564 -0.024892 1.5206 -2.3877 0.49953 -0.27775 -0.93723 -2.3363 -1.0556 3.1848 2.5717 -0 0 -0 -0 0 -0 -0 0 -0 1.5206 -2.3877 0.49953 -0.98625 -0.19632 -1.3191 0.052614 0.64371 2.3717 -0 0 -0 -0 0 -0 -0 0 -0 
0 95.801 0 -0 0 -0 1.5207 -2.3882 0.49866 -0.55113 0.65134 -0.79549 -0.55113 0.65134 -0.79549 -0.46355 0.54661 -0.66863 -0 0 -0 -0.062137 -1.0612 1.7722 -1.2791 -0.13067 1.9263 -0 0 -0 -0 0 -0 1.2843 -0.012734 0.079739 -0.13541 0.29198 0.69274 -0 0 -0 0.3156 -0.4464 -0.025354 0.3156 -0.4464 -0.025353 1.5207 -2.3882 0.49866 -0.27798 -0.93667 -2.3357 -1.0557 3.1853 2.5732 -0 0 -0 -0 0 -0 -0 0 -0 1.5207 -2.3882 0.49866 -0.98617 -0.19665 -1.3192 0.051972 0.64511 2.3716 -0 0 -0 -0 0 -0 -0 0 -0 
0 95.801 0 -0 0 -0 1.5208 -2.3888 0.49781 -0.55122 0.65138 -0.79511 -0.55122 0.65138 -0.79511 -0.46363 0.54665 -0.66831 -0 0 -0 -0.062486 -1.0606 1.7705 -1.2776 -0.12994 1.9281 -0 0 -0 -0 0 -0 1.2843 -0.011597 0.07796 -0.13509 0.29204 0.69006 -0 0 -0 0.31541 -0.44717 -0.025816 0.31541 -0.44717 -0.025816 1.5208 -2.3888 0.49781 -0.27819 -0.93608 -2.335 -1.0557 3.1859 2.5747 -0 0 -0 -0 0 -0 -0 0 -0 1.5208 -2.3888 0.49781 -0.98606 -0.19697 -1.3194 0.051345 0.64655 2.3716 -0 0 -0 -0 0 -0 -0 0 -0 
0 95.801 0 -0 0 -0 1.5208 -2.3894 0.49696 -0.55131 0.65143 -0.79474 -0.55131 0.65143 -0.79474 -0.4637 0.54669 -0.668 -0 0 -0 -0.062872 -1.06 1.7688 -1.276 -0.12922 1.9299 -0 0 -0 -0 0 -0 1.2844 -0.010426 0.076192 -0.13478 0.29209 0.68738 -0 0 -0 0.31521 -0.44797 -0.026261 0.31521 -0.44797 -0.026261 1.5208 -2.3894 0.49696 -0.27843 -0.93542 -2.3345 -1.0557 3.1863 2.5763 -0 0 -0 -0 0 -0 -0 0 -0 1.5208 -2.3894 0.49696 -0.98593 -0.19729 -1.3197 0.050725 0.64799 2.3716 -0 0 -0 -0 0 -0 -0 0 -0 
